<svg width="105" height="18" viewBox="0 0 105 18" fill="none" xmlns="http://www.w3.org/2000/svg">
<path d="M6.10227 17.6875C5.13636 17.6875 4.25852 17.4375 3.46875 16.9375C2.67898 16.4375 2.0483 15.6875 1.5767 14.6875C1.10511 13.6875 0.869318 12.446 0.869318 10.9631C0.869318 9.4233 1.11364 8.15625 1.60227 7.16193C2.09091 6.16761 2.73011 5.43182 3.51989 4.95454C4.31534 4.47727 5.17045 4.23864 6.08523 4.23864C6.77273 4.23864 7.3608 4.35795 7.84943 4.59659C8.33807 4.82955 8.74148 5.13068 9.05966 5.5C9.37784 5.86932 9.61932 6.25284 9.78409 6.65057H9.86932V0.045454H14.0369V17.5H9.91193V15.3778H9.78409C9.60795 15.7812 9.35795 16.1591 9.03409 16.5114C8.71023 16.8636 8.30398 17.1477 7.81534 17.3636C7.33239 17.5795 6.76136 17.6875 6.10227 17.6875ZM7.55114 14.4403C8.05682 14.4403 8.48864 14.2983 8.84659 14.0142C9.20455 13.7244 9.48011 13.3182 9.6733 12.7955C9.86648 12.2727 9.96307 11.6591 9.96307 10.9545C9.96307 10.2386 9.86648 9.62216 9.6733 9.10511C9.4858 8.58807 9.21023 8.19034 8.84659 7.91193C8.48864 7.63352 8.05682 7.49432 7.55114 7.49432C7.03409 7.49432 6.59659 7.63636 6.23864 7.92045C5.88068 8.20455 5.60795 8.60511 5.42045 9.12216C5.23864 9.6392 5.14773 10.25 5.14773 10.9545C5.14773 11.6591 5.24148 12.2727 5.42898 12.7955C5.61648 13.3182 5.88636 13.7244 6.23864 14.0142C6.59659 14.2983 7.03409 14.4403 7.55114 14.4403ZM22.7919 17.7472C21.4226 17.7472 20.2408 17.4773 19.2464 16.9375C18.2578 16.392 17.4964 15.6165 16.9624 14.6108C16.4339 13.5994 16.1697 12.3977 16.1697 11.0057C16.1697 9.65341 16.4368 8.47159 16.9709 7.46023C17.505 6.44318 18.2578 5.65341 19.2294 5.09091C20.201 4.52273 21.3459 4.23864 22.6641 4.23864C23.5959 4.23864 24.4482 4.38352 25.2209 4.67329C25.9936 4.96307 26.6612 5.39205 27.2237 5.96023C27.7862 6.52841 28.2237 7.23011 28.5362 8.06534C28.8487 8.89489 29.005 9.84659 29.005 10.9205V11.9602H17.6271V9.53977H25.1271C25.1214 9.09659 25.0163 8.7017 24.8118 8.35511C24.6072 8.00852 24.326 7.73864 23.968 7.54545C23.6158 7.34659 23.2095 7.24716 22.7493 7.24716C22.2834 7.24716 21.8658 7.35227 21.4964 7.5625C21.1271 7.76705 20.8345 8.0483 20.6186 8.40625C20.4027 8.75852 20.2891 9.15909 20.2777 9.60795V12.071C20.2777 12.6051 20.3828 13.0739 20.593 13.4773C20.8033 13.875 21.1016 14.1847 21.4879 14.4062C21.8743 14.6278 22.3345 14.7386 22.8686 14.7386C23.2379 14.7386 23.5732 14.6875 23.8743 14.5852C24.1754 14.483 24.4339 14.3324 24.6499 14.1335C24.8658 13.9347 25.0277 13.6903 25.1357 13.4006L28.9624 13.5114C28.8033 14.3693 28.4538 15.1165 27.9141 15.7528C27.38 16.3835 26.6783 16.875 25.8089 17.2273C24.9396 17.5739 23.9339 17.7472 22.7919 17.7472ZM43.4808 4.40909L38.9893 17.5H34.2166L29.7337 4.40909H34.1229L36.5348 13.4261H36.6712L39.0916 4.40909H43.4808ZM56.5078 8.40625L52.6811 8.50852C52.6413 8.2358 52.5334 7.99432 52.3572 7.78409C52.1811 7.56818 51.951 7.40057 51.6669 7.28125C51.3885 7.15625 51.0646 7.09375 50.6953 7.09375C50.2124 7.09375 49.8004 7.19034 49.4595 7.38352C49.1243 7.5767 48.9595 7.83807 48.9652 8.16761C48.9595 8.4233 49.0618 8.64489 49.272 8.83239C49.4879 9.01989 49.8714 9.17045 50.4226 9.28409L52.9453 9.76136C54.2521 10.0114 55.2237 10.4261 55.8601 11.0057C56.5021 11.5852 56.826 12.3523 56.8317 13.3068C56.826 14.2045 56.5589 14.9858 56.0305 15.6506C55.5078 16.3153 54.7919 16.8324 53.8828 17.2017C52.9737 17.5653 51.9339 17.7472 50.7635 17.7472C48.8942 17.7472 47.4197 17.3636 46.3402 16.5966C45.2663 15.8239 44.6527 14.7898 44.4993 13.4943L48.6158 13.392C48.7067 13.8693 48.9425 14.233 49.3232 14.483C49.7038 14.733 50.1896 14.858 50.7805 14.858C51.3146 14.858 51.7493 14.7585 52.0845 14.5597C52.4197 14.3608 52.5902 14.0966 52.5959 13.767C52.5902 13.4716 52.4595 13.2358 52.2038 13.0597C51.9482 12.8778 51.5476 12.7358 51.0021 12.6335L48.718 12.1989C47.4055 11.9602 46.4283 11.5199 45.7862 10.8778C45.1442 10.2301 44.826 9.40625 44.8317 8.40625C44.826 7.53125 45.0589 6.78409 45.5305 6.16477C46.0021 5.53977 46.6726 5.0625 47.5419 4.73295C48.4112 4.40341 49.4368 4.23864 50.6186 4.23864C52.3913 4.23864 53.7891 4.6108 54.8118 5.35511C55.8345 6.09375 56.3999 7.1108 56.5078 8.40625ZM66.2727 4.40909V7.47727H58.0142V4.40909H66.2727ZM59.7443 1.27273H63.9119V13.3835C63.9119 13.6392 63.9517 13.8466 64.0312 14.0057C64.1165 14.1591 64.2386 14.2699 64.3977 14.3381C64.5568 14.4006 64.7472 14.4318 64.9688 14.4318C65.1278 14.4318 65.2955 14.4176 65.4716 14.3892C65.6534 14.3551 65.7898 14.3267 65.8807 14.304L66.5114 17.3125C66.3125 17.3693 66.0313 17.4403 65.6676 17.5256C65.3097 17.6108 64.8807 17.6648 64.3807 17.6875C63.4034 17.733 62.5653 17.6193 61.8665 17.3466C61.1733 17.0682 60.642 16.6364 60.2727 16.0511C59.9091 15.4659 59.733 14.7301 59.7443 13.8438V1.27273ZM74.3693 17.7472C72.9943 17.7472 71.8125 17.4659 70.8239 16.9034C69.8409 16.3352 69.0824 15.5455 68.5483 14.5341C68.0199 13.517 67.7557 12.3381 67.7557 10.9972C67.7557 9.65057 68.0199 8.47159 68.5483 7.46023C69.0824 6.44318 69.8409 5.65341 70.8239 5.09091C71.8125 4.52273 72.9943 4.23864 74.3693 4.23864C75.7443 4.23864 76.9233 4.52273 77.9062 5.09091C78.8949 5.65341 79.6534 6.44318 80.1818 7.46023C80.7159 8.47159 80.983 9.65057 80.983 10.9972C80.983 12.3381 80.7159 13.517 80.1818 14.5341C79.6534 15.5455 78.8949 16.3352 77.9062 16.9034C76.9233 17.4659 75.7443 17.7472 74.3693 17.7472ZM74.3949 14.6023C74.8949 14.6023 75.3182 14.4489 75.6648 14.142C76.0114 13.8352 76.2756 13.4091 76.4574 12.8636C76.6449 12.3182 76.7386 11.6875 76.7386 10.9716C76.7386 10.2443 76.6449 9.60795 76.4574 9.0625C76.2756 8.51705 76.0114 8.09091 75.6648 7.78409C75.3182 7.47727 74.8949 7.32386 74.3949 7.32386C73.8778 7.32386 73.4403 7.47727 73.0824 7.78409C72.7301 8.09091 72.4602 8.51705 72.2727 9.0625C72.0909 9.60795 72 10.2443 72 10.9716C72 11.6875 72.0909 12.3182 72.2727 12.8636C72.4602 13.4091 72.7301 13.8352 73.0824 14.142C73.4403 14.4489 73.8778 14.6023 74.3949 14.6023ZM83.1179 17.5V4.40909H87.1662V6.79545H87.3026C87.5412 5.93182 87.9304 5.28977 88.4702 4.86932C89.0099 4.44318 89.6378 4.23011 90.3537 4.23011C90.5469 4.23011 90.7457 4.24432 90.9503 4.27273C91.1548 4.29545 91.3452 4.33239 91.5213 4.38352V8.00568C91.3224 7.9375 91.0611 7.88352 90.7372 7.84375C90.419 7.80398 90.1349 7.78409 89.8849 7.78409C89.3906 7.78409 88.9446 7.89489 88.5469 8.11648C88.1548 8.33239 87.8452 8.63636 87.6179 9.02841C87.3963 9.41477 87.2855 9.86932 87.2855 10.392V17.5H83.1179ZM98.6591 17.7472C97.2898 17.7472 96.108 17.4773 95.1136 16.9375C94.125 16.392 93.3636 15.6165 92.8295 14.6108C92.3011 13.5994 92.0369 12.3977 92.0369 11.0057C92.0369 9.65341 92.304 8.47159 92.8381 7.46023C93.3722 6.44318 94.125 5.65341 95.0966 5.09091C96.0682 4.52273 97.2131 4.23864 98.5312 4.23864C99.4631 4.23864 100.315 4.38352 101.088 4.67329C101.861 4.96307 102.528 5.39205 103.091 5.96023C103.653 6.52841 104.091 7.23011 104.403 8.06534C104.716 8.89489 104.872 9.84659 104.872 10.9205V11.9602H93.4943V9.53977H100.994C100.989 9.09659 100.884 8.7017 100.679 8.35511C100.474 8.00852 100.193 7.73864 99.8352 7.54545C99.483 7.34659 99.0767 7.24716 98.6165 7.24716C98.1506 7.24716 97.733 7.35227 97.3636 7.5625C96.9943 7.76705 96.7017 8.0483 96.4858 8.40625C96.2699 8.75852 96.1563 9.15909 96.1449 9.60795V12.071C96.1449 12.6051 96.25 13.0739 96.4602 13.4773C96.6705 13.875 96.9688 14.1847 97.3551 14.4062C97.7415 14.6278 98.2017 14.7386 98.7358 14.7386C99.1051 14.7386 99.4403 14.6875 99.7415 14.5852C100.043 14.483 100.301 14.3324 100.517 14.1335C100.733 13.9347 100.895 13.6903 101.003 13.4006L104.83 13.5114C104.67 14.3693 104.321 15.1165 103.781 15.7528C103.247 16.3835 102.545 16.875 101.676 17.2273C100.807 17.5739 99.8011 17.7472 98.6591 17.7472Z" fill="white"/>
</svg>
