<?xml version="1.0" encoding="utf-8"?>
<!-- Generator: Adobe Illustrator 24.0.1, SVG Export Plug-In . SVG Version: 6.00 Build 0)  -->
<svg version="1.1" id="Camada_1" xmlns="http://www.w3.org/2000/svg" xmlns:xlink="http://www.w3.org/1999/xlink" x="0px" y="0px"
	 viewBox="0 0 102 102" style="enable-background:new 0 0 102 102;" xml:space="preserve">
<style type="text/css">
	.st0{fill-rule:evenodd;clip-rule:evenodd;fill:#1F8459;}
</style>
<path class="st0" d="M57.3,3.1c2.8-2.8,7.3-2.8,10.1,0l26.1,26.1l-26.2,25c-2.9,2.7-7.4,2.6-10.1-0.2c-2.7-2.9-2.6-7.4,0.2-10.1
	l8.1-7.7H48c-13.9,0-25.2,11.3-25.2,25.2c0,13.9,11.3,25.2,25.2,25.2h35.2c3.9,0,7.1,3.2,7.1,7.1c0,3.9-3.2,7.1-7.1,7.1H48
	C26.2,101,8.5,83.3,8.5,61.5S26.2,22,48,22h18l-8.8-8.8C54.5,10.4,54.5,5.9,57.3,3.1z"/>
</svg>
