<?xml version="1.0" encoding="UTF-8"?>
<svg id="Camada_1" data-name="Camada 1" xmlns="http://www.w3.org/2000/svg" version="1.1" viewBox="0 0 256 256">
  <defs>
    <style>
      .cls-1 {
        fill: #b8952e;
        stroke-width: 0px;
      }
    </style>
  </defs>
  <path class="cls-1" d="M246.4,145c-9.1-20.8-33.6-30.2-54.7-21.2-6.9,3-12.7,7.8-17,13.7l-35.2-13.6,13.8-34.6c1.7.2,3.4.4,5.1.4,5.5,0,11.2-1.1,16.6-3.4,10.3-4.4,18.2-12.6,22.2-22.9,4-10.2,3.8-21.4-.6-31.4-9.1-20.8-33.7-30.2-54.7-21.2-10.3,4.4-18.1,12.6-22.2,22.9-4,10.2-3.8,21.4.6,31.4,3.1,6.9,7.9,12.5,13.7,16.7l-17.7,44.3s0,0,0,0c0,0,0,0,0,0l-43.2,108.3c-2.1,5.3.5,11.3,5.8,13.4,1.3.5,2.6.7,3.8.7,4.1,0,8-2.5,9.6-6.5l39.4-98.9,35.2,13.6c-.9,7.2,0,14.5,3,21.3,6.8,15.4,22,24.6,38.1,24.6s11.2-1.1,16.6-3.4c10.2-4.4,18.1-12.6,22.2-22.9,4-10.2,3.8-21.3-.6-31.4ZM139,41.3c2-5.2,6-9.2,11.2-11.5h0c2.7-1.2,5.6-1.8,8.4-1.8,8,0,15.7,4.6,19.1,12.3,2.2,4.9,2.3,10.4.3,15.5-2,5.2-6,9.2-11.2,11.5-5.3,2.3-11,2.2-16,.4,0,0,0,0,0,0,0,0,0,0,0,0-5-1.9-9.2-5.7-11.5-10.9-2.2-4.9-2.3-10.4-.3-15.5ZM227.7,168.8c-2,5.2-6,9.3-11.1,11.5-10.6,4.6-22.9-.1-27.5-10.5-2.2-4.9-2.3-10.4-.3-15.5,2-5.2,6-9.3,11.2-11.5,10.6-4.6,22.9.1,27.5,10.5,2.2,4.9,2.3,10.4.3,15.5Z"/>
  <path class="cls-1" d="M87.7,125.4c4.1,0,8.1-2.5,9.7-6.6,2.1-5.3-.6-11.3-5.9-13.4l-71.2-27.5c-5.4-2.1-11.3.6-13.4,5.9-2.1,5.3.6,11.3,5.9,13.4l71.2,27.5c1.2.5,2.5.7,3.7.7Z"/>
</svg>