<svg width="29" height="29" xmlns="http://www.w3.org/2000/svg" fill="none">
 <defs>
  <clipPath id="clip0_611_764">
   <rect id="svg_1" transform="matrix(1 0 -0.0261531 0.999658 5.20001 6)" fill="white" height="17.069" width="16.9904"/>
  </clipPath>
 </defs>
 <g>
  <title>Layer 1</title>
  <g stroke="null" id="svg_2" clip-path="url(#clip0_611_764)">
   <path stroke="null" id="svg_3" fill="#4A5DCD" d="m12.2377,15.96093c-0.0014,0.1037 -0.0238,0.2062 -0.066,0.3015c-0.0421,0.0954 -0.1031,0.1818 -0.1795,0.2543c-0.0764,0.0725 -0.1666,0.1296 -0.2656,0.1682c-0.099,0.0385 -0.2047,0.0576 -0.3111,0.0563l-3.04939,-0.033c-0.10643,-0.001 -0.21153,-0.0224 -0.30927,-0.0631c-0.09775,-0.0407 -0.18622,-0.0997 -0.26034,-0.1739c-0.07412,-0.0741 -0.13243,-0.1618 -0.17159,-0.258c-0.03916,-0.0963 -0.0584,-0.1992 -0.05661,-0.3029l0.04588,-2.9704c0.0016,-0.1036 0.02414,-0.206 0.06632,-0.3013c0.04219,-0.0953 0.10319,-0.1816 0.17954,-0.2541c0.07635,-0.0724 0.16654,-0.1296 0.26542,-0.1682c0.09889,-0.0386 0.20453,-0.0578 0.3109,-0.0567c0.10637,0.0012 0.21139,0.0227 0.30905,0.0634c0.09766,0.0407 0.18605,0.0998 0.26014,0.1739c0.07408,0.0741 0.1324,0.1617 0.17163,0.2579c0.03922,0.0962 0.05859,0.199 0.05699,0.3026l-0.01554,1.0675l6.33567,-6.01255c0.1539,-0.14607 0.3609,-0.22683 0.5753,-0.2245c0.2145,0.00232 0.4188,0.08753 0.5682,0.23689c0.1494,0.14936 0.2315,0.35063 0.2282,0.55953c-0.0032,0.2089 -0.0915,0.40833 -0.2454,0.5544l-6.33565,6.01263l1.09735,0.0114c0.1062,0.0013 0.2111,0.0229 0.3086,0.0637c0.0975,0.0409 0.1857,0.1 0.2596,0.1742c0.0739,0.0741 0.1319,0.1617 0.1709,0.2579c0.039,0.0962 0.0581,0.1989 0.0563,0.3024zm9.1482,0.0991l0.0458,-2.9705c0.0018,-0.1036 -0.0174,-0.2065 -0.0566,-0.3028c-0.0391,-0.0962 -0.0974,-0.1839 -0.1716,-0.2581c-0.0741,-0.0741 -0.1625,-0.1332 -0.2603,-0.1738c-0.0977,-0.0407 -0.2028,-0.0621 -0.3093,-0.0631l-3.0494,-0.033c-0.2148,-0.0023 -0.4221,0.0786 -0.5763,0.2249c-0.1542,0.1463 -0.2426,0.3461 -0.2458,0.5554c-0.0033,0.2092 0.079,0.4108 0.2286,0.5605c0.1496,0.1496 0.3543,0.2349 0.5692,0.2373l1.0968,0.0119l-6.3356,6.0125c-0.154,0.1461 -0.2423,0.3455 -0.2455,0.5544c-0.0032,0.2089 0.0789,0.4102 0.2282,0.5596c0.1494,0.1493 0.3538,0.2345 0.5682,0.2369c0.2145,0.0023 0.4214,-0.0785 0.5754,-0.2245l6.3356,-6.0126l-0.017,1.0689c-0.0032,0.2092 0.079,0.4109 0.2287,0.5605c0.1496,0.1496 0.3543,0.235 0.5691,0.2373c0.2149,0.0023 0.4222,-0.0786 0.5764,-0.2249c0.1541,-0.1463 0.2426,-0.3461 0.2458,-0.5554l-0.0004,-0.0014z"/>
  </g>
 </g>
</svg>