<?xml version="1.0" encoding="utf-8"?>
<!-- Generator: Adobe Illustrator 24.0.1, SVG Export Plug-In . SVG Version: 6.00 Build 0)  -->
<svg version="1.1" id="Camada_1" xmlns="http://www.w3.org/2000/svg" xmlns:xlink="http://www.w3.org/1999/xlink" x="0px" y="0px"
	 viewBox="0 0 128 128" style="enable-background:new 0 0 128 128;" xml:space="preserve">
<style type="text/css">
	.st0{fill:#4A5DCD;}
</style>
<g>
	<path class="st0" d="M43.6,77.2c0,0.9-0.2,1.9-0.6,2.7c-0.4,0.9-0.9,1.6-1.6,2.3c-0.7,0.7-1.5,1.2-2.4,1.5
		c-0.9,0.3-1.8,0.5-2.8,0.5L8.7,83.9c-1,0-1.9-0.2-2.8-0.6C5,83,4.2,82.4,3.6,81.8c-0.7-0.7-1.2-1.5-1.5-2.3
		c-0.4-0.9-0.5-1.8-0.5-2.7l0.4-26.8c0-0.9,0.2-1.9,0.6-2.7c0.4-0.9,0.9-1.6,1.6-2.3c0.7-0.7,1.5-1.2,2.4-1.5
		c0.9-0.3,1.8-0.5,2.8-0.5c1,0,1.9,0.2,2.8,0.6c0.9,0.4,1.7,0.9,2.3,1.6c0.7,0.7,1.2,1.5,1.5,2.3c0.4,0.9,0.5,1.8,0.5,2.7l-0.1,9.6
		L73.5,5.5c1.4-1.3,3.3-2,5.2-2c1.9,0,3.8,0.8,5.1,2.1c1.3,1.3,2.1,3.2,2.1,5c0,1.9-0.8,3.7-2.2,5L26.5,69.9l9.9,0.1
		c1,0,1.9,0.2,2.8,0.6c0.9,0.4,1.7,0.9,2.3,1.6c0.7,0.7,1.2,1.5,1.5,2.3C43.4,75.3,43.6,76.2,43.6,77.2z M126.1,78.1l0.4-26.8
		c0-0.9-0.2-1.9-0.5-2.7c-0.4-0.9-0.9-1.7-1.5-2.3c-0.7-0.7-1.5-1.2-2.3-1.6c-0.9-0.4-1.8-0.6-2.8-0.6l-27.5-0.3
		c-1.9,0-3.8,0.7-5.2,2c-1.4,1.3-2.2,3.1-2.2,5c0,1.9,0.7,3.7,2.1,5.1c1.3,1.3,3.2,2.1,5.1,2.1l9.9,0.1l-57.1,54.2
		c-1.4,1.3-2.2,3.1-2.2,5c0,1.9,0.7,3.7,2.1,5c1.3,1.3,3.2,2.1,5.1,2.1c1.9,0,3.8-0.7,5.2-2l57.1-54.2l-0.2,9.6
		c0,1.9,0.7,3.7,2.1,5.1c1.3,1.3,3.2,2.1,5.1,2.1c1.9,0,3.8-0.7,5.2-2C125.3,81.8,126.1,80,126.1,78.1L126.1,78.1z"/>
</g>
</svg>
