<svg fill="none" height="29" viewBox="0 0 327 29" width="327" xmlns="http://www.w3.org/2000/svg"><title>Rocketseat + Sirius</title><path d="M49.1272 15.8592C50.1124 15.0223 50.6111 13.7524 50.6111 12.0872C50.6111 9.021 48.8528 7.2627 45.7865 7.2627H35.7803V21.7277H38.1926V9.67497H45.7865C47.5224 9.67497 48.1988 10.3514 48.1988 12.0872C48.1988 13.8231 47.5224 14.4995 45.7865 14.4995H40.8257L47.6915 21.7277H50.7992L46.2714 16.8963C47.443 16.8221 48.4024 16.4735 49.1272 15.8575V15.8592Z" fill="white"></path><path d="M60.3617 7.10059H60.3566C57.2248 7.10059 54.9919 8.05307 53.7168 9.92698C52.6677 11.4713 52.5469 13.2762 52.5469 14.4996C52.5469 15.723 52.6677 17.5279 53.7168 19.0722C54.9902 20.9461 57.2248 21.8969 60.3566 21.8986C60.3583 21.8986 60.36 21.8986 60.3617 21.8986C63.4953 21.8986 65.7316 20.9496 67.0084 19.0774C68.0645 17.5296 68.187 15.7247 68.187 14.4996C68.187 13.2745 68.0645 11.4696 67.0084 9.9218C65.7298 8.04962 63.4936 7.10059 60.36 7.10059H60.3617ZM65.0172 17.716C64.2166 18.8893 62.6498 19.4846 60.3617 19.4846H60.3566C58.072 19.4846 56.5087 18.8876 55.7115 17.7142C55.0437 16.7324 54.9574 15.4797 54.9574 14.4979C54.9574 13.5161 55.0437 12.2633 55.7115 11.2815C56.5087 10.1082 58.072 9.51286 60.3566 9.51114H60.36C62.6481 9.51114 64.2148 10.1064 65.0155 11.2798C65.6867 12.2651 65.773 13.5161 65.773 14.4979C65.773 15.4797 65.6867 16.7307 65.0155 17.716H65.0172Z" fill="white"></path><path d="M149.832 14.166C149.018 13.6035 147.91 13.3188 146.536 13.3188H141.895C139.562 13.3188 139.367 12.3715 139.367 11.4845C139.367 10.5976 139.562 9.65032 141.895 9.65032H150.741V7.28809H141.895C140.523 7.28809 139.413 7.57279 138.599 8.13531C137.871 8.63916 137.003 9.62789 137.003 11.4845C137.003 13.3412 137.871 14.3299 138.599 14.8338C139.413 15.3963 140.521 15.681 141.895 15.681H146.536C147.408 15.681 148.082 15.8294 148.488 16.1089C148.736 16.2798 149.064 16.6128 149.064 17.5152C149.064 18.4177 148.869 19.3494 146.536 19.3494H137.598V21.7117H146.536C147.908 21.7117 149.018 21.427 149.832 20.8645C150.56 20.3606 151.428 19.3719 151.428 17.5152C151.428 15.6586 150.56 14.6698 149.832 14.166Z" fill="white"></path><path d="M107.227 15.6969H115.991V13.2846H107.227V9.66618H118.082V7.25391H104.814V21.7275H118.103V19.3153H107.227V15.6969Z" fill="white"></path><path d="M156.88 15.6969H165.646V13.2846H156.88V9.66618H167.737V7.25391H154.468V21.7275H167.756V19.3153H156.88V15.6969Z" fill="white"></path><path d="M120.253 9.64055H126.284V21.7364H128.698V9.64055H134.728V7.27832H120.253V9.64055Z" fill="white"></path><path d="M201.993 7.27832H187.518V9.64055H193.55V21.7364H195.962V9.64055H201.993V7.27832Z" fill="white"></path><path d="M102.299 7.28711H99.2604L93.1504 14.4998L99.2673 21.728H102.325L96.3012 14.498L102.299 7.28711Z" fill="white"></path><path d="M90.4305 7.25391H87.8975V21.7275H90.4305V7.25391Z" fill="white"></path><path d="M180.804 7.26758H175.014C172.625 7.26758 170.682 9.21051 170.682 11.6003V21.7326H173.075V16.7579H182.759V21.7326H185.121V15.745C185.129 15.6846 185.136 15.6243 185.136 15.5621V11.6003C185.136 9.21051 183.193 7.26758 180.804 7.26758ZM182.743 14.3646H173.075V11.6003C173.075 10.5305 173.945 9.66087 175.014 9.66087H180.804C181.873 9.66087 182.743 10.5305 182.743 11.6003V14.3646Z" fill="white"></path><path d="M70.6152 11.6043V17.3934C70.6152 19.7832 72.5582 21.7261 74.948 21.7261H85.0802V19.3329H74.948C73.8782 19.3329 73.0085 18.4632 73.0085 17.3934V11.6043C73.0085 10.5344 73.8782 9.66478 74.948 9.66478H85.0802V7.27148H74.948C72.5582 7.27148 70.6152 9.21441 70.6152 11.6043Z" fill="white"></path><path d="M15.383 20.2251C9.76988 25.0203 5.78394 25.3585 3.74265 23.3155C1.86183 21.4347 3.4217 16.7171 7.22301 12.0582L0 4.83691H4.61576L11.7905 12.0116C7.2627 16.567 4.62266 21.4174 5.98755 22.7823C7.11776 23.9142 10.5964 22.3457 14.3494 19.1915L15.383 20.2251Z" fill="white"></path><path d="M28.5507 24.1626H23.935L16.7603 16.9879C21.288 12.4342 23.9281 7.58209 22.5649 6.21893C21.4347 5.08699 17.9526 6.65721 14.1996 9.81146L13.166 8.77788C18.7808 3.98094 22.7685 3.641 24.8098 5.68401C26.6906 7.56483 25.1325 12.2824 21.3294 16.9413L28.5525 24.1626H28.5507Z" fill="white"></path><path d="M221.872 19.5V15.62H217.992V13.36H221.872V9.5H224.132V13.36H227.992V15.62H224.132V19.5H221.872Z" fill="#7C7C8A"></path><path d="M253.773 13.2228L251.908 12.8838C250.736 12.6677 249.934 12.4675 249.487 12.2668C249.04 12.0666 248.824 11.7276 248.824 11.2493C248.824 10.7097 249.071 10.2933 249.549 10.0004C250.027 9.70757 250.643 9.5688 251.384 9.5688C253.157 9.5688 254.19 10.2779 254.483 11.7117H258.692C258.491 10.047 257.72 8.72075 256.379 7.71867C255.038 6.71659 253.388 6.2234 251.43 6.2234C249.472 6.2234 247.837 6.71659 246.527 7.70327C245.216 8.69009 244.569 10.0004 244.569 11.6196C244.569 14.1328 246.326 15.7052 249.842 16.3372L252.586 16.8462C252.987 16.9231 253.326 17.0002 253.588 17.0775C253.85 17.1544 254.128 17.3394 254.405 17.6322C254.683 17.9256 254.822 18.2954 254.822 18.7424C254.806 20.0533 253.85 20.7005 251.954 20.7005C249.903 20.7005 248.778 19.7603 248.577 17.8944H244.384C244.384 19.8218 245.078 21.3329 246.481 22.4273C247.884 23.522 249.51 23.9912 251.715 23.9912L251.939 23.9849C254.082 23.9849 255.809 23.4758 257.104 22.4431C258.399 21.4098 259.046 20.0379 259.046 18.3107C259.046 15.5972 257.289 13.9013 253.773 13.2228Z" fill="white"></path><path d="M261.604 23.6299H265.797V6.51608H261.604V23.6299Z" fill="white"></path><path d="M274.068 6.80904C273.729 6.99388 273.359 7.34873 272.958 7.85733H272.604L271.972 6.53149H268.41L268.441 23.6299H272.635V12.3594C272.635 11.7428 272.82 11.2646 273.174 10.9102C273.529 10.5554 274.007 10.3859 274.608 10.3859H278.031V6.53149H275.364C274.839 6.53149 274.408 6.62377 274.068 6.80904Z" fill="white"></path><path d="M280.622 23.6299H284.816V6.51608H280.622V23.6299Z" fill="white"></path><path d="M298.677 15.0727C298.677 17.1081 298.368 18.4646 297.767 19.1431C297.181 19.8061 296.287 20.1299 295.084 20.1299C293.882 20.1299 293.003 19.7755 292.432 19.0508C291.908 18.3723 291.646 16.9228 291.646 14.7183V6.51609H287.406V15.7666C287.406 16.6299 287.422 17.3238 287.452 17.848C287.483 18.3723 287.622 19.0662 287.869 19.9296C288.115 20.7929 288.47 21.5022 288.932 22.0726C289.981 23.3522 291.6 24 293.789 24V23.9846C295.624 23.9846 297.135 23.4295 298.338 22.3041H298.677L299.309 23.6297H302.886V6.51609H298.677V15.0727Z" fill="white"></path><path d="M312.488 6.22326C310.531 6.22326 308.896 6.71645 307.586 7.70313C306.275 8.68995 305.628 10.0004 305.628 11.6195C305.628 14.1326 307.385 15.7052 310.9 16.3372L313.645 16.8461C314.046 16.9229 314.385 17.0002 314.647 17.0775C314.909 17.1544 315.187 17.3393 315.464 17.6322C315.742 17.9255 315.88 18.2953 315.88 18.7423C315.865 20.0531 314.909 20.7004 313.013 20.7004C310.962 20.7004 309.837 19.7602 309.636 17.8944H305.442C305.442 19.8216 306.136 21.3328 307.539 22.4271C308.942 23.5219 310.569 23.9912 312.774 23.9912L312.997 23.9847C315.14 23.9847 316.867 23.4758 318.162 22.4429C319.457 21.4096 320.105 20.0377 320.105 18.3107C320.105 15.5971 318.347 13.9012 314.832 13.2227L312.967 12.8837C311.795 12.6676 310.993 12.4674 310.546 12.2667C310.099 12.0664 309.883 11.7274 309.883 11.2492C309.883 10.7095 310.129 10.2932 310.608 10.0004C311.085 9.70743 311.702 9.56866 312.442 9.56866C312.968 9.56866 313.428 9.63268 313.823 9.75788C313.238 8.71044 312.897 7.50882 312.878 6.23032C312.749 6.2258 312.62 6.22326 312.488 6.22326Z" fill="white"></path><path d="M320.359 1.06494C317.573 1.06494 315.307 3.33125 315.307 6.11689C315.307 8.90268 317.573 11.1688 320.359 11.1688C323.144 11.1688 325.411 8.90268 325.411 6.11689C325.411 3.33125 323.144 1.06494 320.359 1.06494ZM320.359 12.2344C316.985 12.2344 314.241 9.48999 314.241 6.11689C314.241 2.74379 316.985 -0.000447273 320.359 -0.000447273C323.732 -0.000447273 326.476 2.74379 326.476 6.11689C326.476 9.48999 323.732 12.2344 320.359 12.2344Z" fill="white"></path></svg>