<?xml version="1.0" encoding="UTF-8"?>
<svg id="Camada_1" data-name="Camada 1" xmlns="http://www.w3.org/2000/svg" version="1.1" viewBox="0 0 512 512">
  <defs>
    <style>
      .cls-1 {
        fill-rule: evenodd;
      }

      .cls-1, .cls-2 {
        fill: #d658b3;
        stroke-width: 0px;
      }
    </style>
  </defs>
  <path class="cls-2" d="M93.7,232.7c.8-.3,1.6-.7,2.4-1.2.7-.3,1.3-.6,1.9-.9.6-.3,1.3-.6,2.1-.9l.5-1.3c.3-.4.5-.9.6-1.3,1.7-4,3.4-8.2,4.9-12.6,1.6-4.6,2.3-9.6,1.9-15.1.5-1.1.9-2.1,1.2-3.1.3-.9.6-1.9.8-3,.2-1.1.2-2.3.1-3.5,0-1.3,0-3.1-.1-5.3.5-.9.9-2,1.3-3.5.4-1.5.6-2.8.4-4l-.4-2.4,2.4.3c-.2-.3-.3-.6-.4-.9l-.3-.8c-.3-.8-.6-1.5-.9-2.2-.2-.8-.2-1.6,0-2.4-1.5-1-2.6-2.5-3.2-4.5-.3-.7-1.2-1.4-2.4-2.1-.2,0-.3-.2-.4-.3,0,0-.3-.3-.6-.5-.7-.6-1-1.3-1-2.2-.2,0-.4-.2-.6-.3-.2,0-.4-.2-.6-.4-.9-.4-1.9-.9-3-1.3-1-.4-2-.6-3-.6s-1.8.3-2.7.8c-1.5,3.6-3.4,6.6-5.8,9-2.4,2.4-4.9,4.6-7.5,6.7-1.4,1.1-2.7,2.2-4,3.4-1.2,1.1-2.6,2.4-4.1,3.9-.7,0-1.4.3-2.1.8-.7.3-1.4.8-2.1,1.3-1,.7-2.1,1.4-3.4,2.1-1.1.6-2.4.9-3.7.9s-2.6-.6-4.1-1.8c-.2-.8-.3-1.5-.3-2.1s0-1.3.1-1.9c.3-1.4.2-2.4-.3-3.2v-1.3c.3-1.1.5-2.2.4-3.2,0-1-.2-2-.6-3-.3-1-.9-2-1.5-3-.6-1-1.2-2.1-1.9-3.1-.5-.9-1.1-1.8-1.7-2.4-.8-.2-1.5-.3-2.2-.5-.6-.3-1.4-.5-2.3-.8-.7,0-1.2-.4-1.5-1.3l-.3-1.4c-.9-1-2.2-1.9-4.1-2.7-2.7,1-4.9,2.4-6.3,4.3-1.4,1.7-2.8,3.9-4.4,6.6-.5.9-1.1,1.8-1.7,2.7-.5.9-1.1,1.8-1.8,2.8-.9,1.3-1.9,3.2-3.2,5.7-1.2,2.5-2.5,5.2-3.9,8.2-1.4,2.9-2.7,6-4.1,9.2-1.4,3.1-2.6,5.9-3.7,8.5-1,2.6-1.9,4.7-2.6,6.3-.7,1.6-1,2.5-1,2.6-.8,1.8-1.2,4-1.3,6.4,0,2.4.2,4.8.6,7.2.5,2.4,1.2,4.7,2.1,6.8.9,2.1,2,3.7,3.1,4.9,1.5.3,2.7.4,3.4.4,1.5,0,2.6-.5,3.5-1.4.9-.9,2-2.8,3.5-5.8.2-.5.3-1.1.3-1.7,0-.4.1-.9.1-1.3,0-.4.2-.9.4-1.3.3-.4.6-.8.9-1.2s.8-.9,1.2-1.3c.6-.4,1-1,1.2-1.8-.3-.6-.4-1.2-.3-1.9.4-1.3,1.1-2.4,1.9-3.5.9-1,1.7-1.9,2.4-2.7,0-1,0-2.2.4-3.6.4-1.5.9-2.9,1.4-4.3.5-1.4,1-2.6,1.5-3.6.5-1.1.9-1.8,1.2-2.2l1-1.7,1,1.9c3.6,7.3,9,11,16.2,11s5.7-.5,8.6-1.4c3-.9,5.9-2.1,8.8-3.6,2.9-1.5,5.7-3.2,8.4-4.9,2.7-1.8,5.1-3.5,7.3-5.2.2-.5.4-.8.6-.9.3,0,.7-.1,1-.1l1.2,1.3c0,.8-.2,1.3-.6,1.5-2.7,9.5-4.1,17.4-4,23.6.2,6.2,1.9,10.5,5.3,13,.9,0,1.8-.2,2.4-.5Z"/>
  <path class="cls-2" d="M186.4,162.7c0-.3,0-.8,0-1.4-1.6-.7-3.1-1.5-4.5-2.4-1.3-1-2.4-2.3-3.2-3.7,0,.8-.1,1-.6.8-.4-.3-.8-.1-1.2.6-.7,0-1.4-.4-2.2-1.2-3.6.7-6.8,1.2-9.7,1.5-2.8.3-5.6.7-8.2,1.2-2.6.3-5.2.8-8,1.4-2.7.6-5.7,1.5-9.2,2.6-1.9.4-3.7.8-5.4,1.2-1.7.3-3.3.8-4.8,1.3-1.5.5-2.8,1.2-4.1,2.1-1.2.8-2.2,1.8-3.1,3.1.4,1.5.7,2.9.9,4.4.2,1.4.4,2.7.6,4.1.3,1.3.6,2.6,1.2,4,.6,1.3,1.5,2.5,2.7,3.6-.6,1.6-1.2,3.1-1.9,4.5-.6,1.3-1.2,2.6-1.9,3.9-.6,1.3-1.2,2.6-1.8,4-.6,1.4-1.2,2.8-1.7,4.4-.6,0-.9,0-1,.5,0,.3-.3.6-.8.6.3,1.2,0,2.3-.9,3.4-.8,1-1.3,2.2-1.5,3.5-.3,1.2-.3,2.5-.3,4,.2,1.5.4,3,.6,4.5.3,1.5.5,2.9.8,4.3.3,1.4.4,2.6.5,3.7.9.4,1.5,1.1,1.7,1.9.3.8.7,1.5,1.4,2.1,1.6,1.6,3.7,2.7,6.3,3.4,2.6.7,5.3,1.1,8.1,1.2,2.8,0,5.6,0,8.4-.4,2.7-.3,5.1-.7,7.1-1.2.7,0,1.3,0,1.8.3.5.3,1.2.3,1.9.1,3.2-.6,6.1-1.1,8.6-1.5,2.7-.4,5.1-1,7.2-1.8,2.1-.8,4-1.9,5.7-3.4,1.7-1.5,3.2-3.7,4.5-6.6-.5,0-.9,0-1.2-.3-.2-.3-.3-.7-.4-1.2,0-.4-.2-.9-.4-1.3,0-.5-.3-.9-.6-1.3-.8,0-1.4,0-1.9-.5-.5-.4-1-.9-1.5-1.4-.4-.6-.9-1.2-1.4-1.8-.5-.7-1.1-1.2-1.8-1.4-2,.7-4.2,1.2-6.6,1.5-2.3.3-4.3.9-6.1,1.8-2.7,0-5,0-6.8.3-1.8.2-3.6.4-5.3.6-1.7.2-3.6.3-5.5.4-1.9,0-4.3,0-7.2-.5.9-2.3,1.8-4.5,3-6.6,1.1-2.1,2.4-4,3.7-5.8,1,.3,2.2.5,3.5.5,1.4,0,2.5,0,3.5.5.7-.4,1.6-.6,2.8-.4,1.3.2,2.3,0,3-.4.3.3.6.4.8.4h1c2.1,0,3.9,0,5.5-.5,1.7-.5,3.3-1.2,4.8-1.9,1.5-.8,3-1.6,4.4-2.6,1.4-1,2.7-2,4.1-3,.3-.9.4-1.7.3-2.4,0-.9-.3-1.6-.6-2.3-.9,0-1.6,0-2.3-.4-.6-.4-1.2-.9-1.8-1.5l-1.8-1.8c-.6-.7-1.2-1.2-1.8-1.7,0-.3,0-.6.1-.6.2-.2.2-.5.1-.9-3.5,0-7.1.3-10.8.6-3.6.3-6.9.4-9.9.1-.3-.5-.4-1.2-.4-1.9,0-.9,0-1.7-.4-2.4.8-.3,1.5-.5,2.3-.6.8-.3,1.4-.6,1.9-1.2,1.7.2,3,0,3.9-.4.9-.4,2-.4,3.1,0,2.8-1.7,5.7-2.8,8.5-3.4,2.9-.5,5.8-1,8.5-1.4,2.7-.5,5.3-1.3,7.6-2.3,2.4-1.1,4.5-3.1,6.3-6.1-.2-.6-.3-1-.3-1.3v-.9c0-.3.1-.5.1-.8Z"/>
  <path class="cls-1" d="M272.5,231.5c-.9.4-1.7.8-2.4,1.2-.7.3-1.5.5-2.4.5-3.4-2.5-5.1-6.8-5.3-13,0-6.2,1.2-14,4-23.6.4-.3.6-.8.6-1.5l-1.2-1.3c-.3,0-.7,0-1,.1-.3,0-.5.4-.6.9-2.2,1.6-4.7,3.4-7.3,5.2-2.7,1.7-5.5,3.4-8.4,4.9-2.8,1.5-5.8,2.7-8.8,3.6-2.9.9-5.8,1.4-8.6,1.4-7.2,0-12.6-3.7-16.2-11l-1-1.9-1,1.7c-.3.3-.6,1.1-1.2,2.2-.5,1-1,2.2-1.5,3.6-.5,1.4-1,2.8-1.4,4.3-.3,1.4-.5,2.6-.4,3.6-.8.8-1.6,1.7-2.4,2.7-.9,1-1.5,2.2-1.9,3.5-.2.7,0,1.3.3,1.9-.2.8-.6,1.4-1.2,1.8-.3.4-.7.9-1.2,1.3-.3.3-.6.7-.9,1.2-.2.4-.3.9-.4,1.3,0,.4,0,.9-.1,1.3,0,.6,0,1.2-.3,1.7-1.5,3-2.6,4.9-3.5,5.8-.9.9-2,1.4-3.5,1.4s-1.8-.1-3.4-.4c-1.1-1.2-2.1-2.8-3.1-4.9-.9-2.1-1.5-4.4-2.1-6.8-.4-2.4-.6-4.8-.6-7.2,0-2.5.5-4.6,1.3-6.4,0,0,.3-.9,1-2.6.7-1.6,1.5-3.7,2.6-6.3,1.1-2.6,2.4-5.4,3.7-8.5,1.4-3.2,2.7-6.2,4.1-9.2,1.4-3,2.7-5.8,3.9-8.2,1.3-2.5,2.4-4.4,3.2-5.7.7-1,1.3-2,1.8-2.8.6-.9,1.2-1.8,1.7-2.7,1.5-2.7,3-4.9,4.4-6.6,1.5-1.8,3.6-3.2,6.3-4.3,1.9.8,3.3,1.7,4.1,2.7l.3,1.4c.3.9.9,1.3,1.5,1.3.9.3,1.7.5,2.3.8.7.2,1.4.3,2.2.5.6.7,1.2,1.5,1.7,2.4.7,1,1.3,2.1,1.9,3.1.7.9,1.2,1.9,1.5,3,.4.9.6,1.9.6,3,0,1,0,2.1-.5,3.2v1.3c.6.8.6,1.8.4,3.2,0,.6-.1,1.2-.1,1.9s0,1.3.3,2.1c1.5,1.2,2.9,1.8,4.1,1.8s2.6-.3,3.7-.9c1.2-.7,2.3-1.4,3.4-2.1.7-.5,1.4-.9,2.1-1.3.7-.4,1.4-.7,2.1-.8,1.5-1.5,2.9-2.7,4.1-3.9,1.3-1.1,2.6-2.2,4-3.4,2.6-2.1,5.1-4.3,7.5-6.7,2.4-2.4,4.3-5.4,5.8-9,.9-.5,1.8-.8,2.7-.8s1.9.2,3,.6c1,.4,2,.9,3,1.3.3.2.5.3.6.4.3,0,.5.2.6.3,0,.9.3,1.6,1,2.2.3.3.6.4.6.5,0,0,.2.2.4.3,1.3.7,2.1,1.4,2.4,2.1.5,1.5,1.2,2.8,2.3,3.8.7-1.2,1.6-2.2,2.6-3.1,1.5-1.4,3.3-2.5,5.3-3.4,2-.9,4.1-1.7,6.3-2.2,2.2-.6,4.4-1.2,6.4-1.7,3.4-.6,6.7-1.3,10.1-2.1,3.4-.8,7-1,10.8-.8.5-.3,1.1-.4,1.8-.4.8,0,1.5-.1,2.3-.1h2.2c.8,0,1.4-.3,1.9-.5.4.5,1,.9,1.8,1,.9,0,1.8.5,2.7,1.2,1-.8,1.9-.9,2.6-.5.8.4,1.5.9,2.1,1.4s1.2,1,1.7,1.4c.6.4,1.2.6,1.8.6.6.8,1.3,1.5,2.2,2.2.9.7,1.8,1.4,2.6,2.2.9.7,1.5,1.5,2.1,2.3.6.9.9,1.8.9,3,0,.4,0,.7.4.8.3,0,.6.3.8.5,0,2.7-.3,5-1.3,7-.9,1.9-2,3.7-3.4,5.3-1.3,1.6-2.7,3.2-4.4,4.6-1.5,1.5-3,3-4.3,4.6.9,1.1,1.8,2.1,3,3l3.4,2.6c1.2.9,2.3,1.8,3.4,2.7,1,.9,1.9,2.1,2.6,3.4.2.2.4.3.6.5.3,0,.5.2.8.4.3.9.6,1.8,1,2.7.4.9.8,1.7,1,2.6.3.8.6,1.5.6,2.2,0,.6,0,1.1-.5,1.5.5.3.8.7.9,1.3,0,.6,0,1.1,0,1.4-1.5,2-2.6,3.4-3.2,4.1s-1,1.4-1.3,1.8c-.3.3-.6.6-.9.9-.3.3-.9.8-1.9,1.7-3.9,2.3-7.9,4.4-12,6.2-4,1.8-8.3,3.1-12.8,3.7-.7.9-2,1.6-4,1.9-1.9.4-3.7.8-5.3,1.2-.3-.2-.6-.4-.6-.8,0-.3-.2-.5-.5-.6,0,.9-.5,1.3-1.2,1.3-.7,0-1.5,0-2.6-.5-.9-.3-2-.9-3.1-1.5-1-.6-1.9-1.2-2.7-1.7-.4.7-.9,1.4-1.4,2.1-.4.7-1,1.2-1.7,1.4-.9-.2-1.7-.3-2.2-.4-.4,0-.9,0-1.3.5-.5-.3-.9-.6-1.3-.9-.3-.3-.6-.7-.9-1-.3-.3-.6-.5-1-.8-.3-.3-.9-.5-1.5-.6.2-.3,0-.9-.3-1.5-.3-.8-.9-1.2-1.5-1.4.3-.6.2-1.3-.5-2.2-.6-.9-1.1-2-1.4-3.1.2-.9.3-2,.4-3.1s.6-1.8,1.5-1.9c0-.6-.2-1.1-.4-1.5l-.5-1.3c.6-.5,1-1.1,1.3-1.8.3-.8.5-1.5.6-2.3.2-.8.4-1.5.6-2.3.3-.8.7-1.4,1.4-1.9.8-2.6,1.4-4.5,1.8-5.7.4-1.3.7-2.5.9-3.7.3-1.2.5-2.5.8-3.9.3-1.4.9-3.1,1.7-5.2,0-1.3,0-2.4.4-3.4.3-1,.7-2,1-3,.4-1,.8-2.1,1-3.1.3-1.1.2-2.4-.1-3.9-1.2,0-2.1.5-2.6,1.3-.5.7-.9,1.6-1,2.8-.7.7-1.5,1-2.6,1-.9,0-1.8,0-2.6.3-3-1.2-5.5-2.9-7.5-5.2-.7-.8-1.4-1.7-2-2.6l-1.8-.2.4,2.4c.2,1.2,0,2.5-.4,4-.3,1.5-.8,2.6-1.3,3.5,0,2.2.1,4,.1,5.3,0,1.2,0,2.4-.1,3.5-.2,1-.4,2-.8,3-.3.9-.6,2-1.2,3.1.3,5.5-.3,10.5-1.9,15.1-1.5,4.5-3.2,8.7-4.9,12.6-.2.4-.4.9-.6,1.3l-.5,1.3c-.8.3-1.5.6-2.1.9-.6.3-1.2.6-1.9.9ZM325.7,170.9c4.4-.9,8.8-1.3,13.1-1.2-2.1,2.6-4.5,4.9-7.1,7.1-2.6,2.1-5.5,3.8-8.9,5.2-.9-1.6-2.1-2.9-3.6-3.9-1.5-.9-2.9-2-4.4-3.2,2.9-1.7,6.5-3,10.8-4ZM341.9,208.8c-.7.5-1.2,1.2-1.4,2.1-2.1.8-4.2,1.6-6.2,2.6-1.9.9-3.9,1.7-5.9,2.6-2,.9-4,1.7-6.2,2.4-2.1.7-4.5,1.2-7.1,1.5.9-2.7,1.9-5.6,3-8.5,1-2.9,2-5.6,3-8.1,1.9-.3,3.7-.7,5.5-1.3,1.9-.6,3.8-1,5.8-1.3,2.1-.3,4.2-.3,6.4,0,2.3.3,4.9,1.1,7.6,2.6,0,1-.1,1.8-.6,2.4-.5.5-1.1,1-1.8,1.5-.7.4-1.4.9-2.1,1.4Z"/>
  <path class="cls-2" d="M438.3,161.3c0,.6,0,1.1,0,1.4,0,.3,0,.5-.1.8v.9c0,.3,0,.7.3,1.3-1.8,2.9-3.9,4.9-6.3,6.1-2.3,1-4.9,1.8-7.6,2.3-2.7.4-5.6.9-8.5,1.4-2.8.5-5.7,1.6-8.5,3.4-1.1-.4-2.1-.4-3.1,0-.9.4-2.1.6-3.9.4-.5.5-1.2.9-1.9,1.2-.8.2-1.5.4-2.3.6.3.8.5,1.6.4,2.4,0,.8.1,1.4.4,1.9,3,.3,6.3.2,9.9-.1,3.7-.3,7.3-.6,10.8-.6,0,.4,0,.7-.1.9-.2,0-.2.3-.1.6.6.4,1.2,1,1.8,1.7l1.8,1.8c.6.6,1.2,1.1,1.8,1.5.7.3,1.5.5,2.3.4.3.7.6,1.5.6,2.3.2.8,0,1.6-.3,2.4-1.4.9-2.7,1.9-4.1,3-1.4.9-2.8,1.8-4.4,2.6-1.5.8-3.1,1.4-4.8,1.9-1.6.4-3.5.6-5.5.5h-1c-.2,0-.4-.1-.8-.4-.7.4-1.7.6-3,.4-1.2-.2-2.1,0-2.8.4-.9-.4-2.1-.6-3.5-.5-1.3,0-2.4-.2-3.5-.5-1.4,1.8-2.6,3.7-3.7,5.8-1.1,2.1-2.1,4.3-3,6.6,2.9.4,5.3.6,7.2.5,2,0,3.8-.2,5.5-.4,1.7-.3,3.5-.5,5.3-.6,1.8-.3,4.1-.3,6.8-.3,1.7-.9,3.7-1.5,6.1-1.8,2.4-.3,4.6-.9,6.6-1.5.7.3,1.3.7,1.8,1.4.5.6,1,1.2,1.4,1.8.5.5,1,1,1.5,1.4.5.4,1.2.6,1.9.5.3.3.6.8.6,1.3.2.4.3.9.4,1.3,0,.4.2.8.4,1.2.3.3.6.3,1.2.3-1.3,2.8-2.8,5-4.5,6.6-1.6,1.5-3.5,2.6-5.7,3.4-2.1.8-4.6,1.4-7.2,1.8-2.6.4-5.5.9-8.6,1.5-.8.2-1.4.1-1.9-.1-.5-.2-1.1-.3-1.8-.3-2,.4-4.3.8-7.1,1.2-2.7.3-5.5.5-8.4.4-2.8,0-5.5-.5-8.1-1.2-2.6-.6-4.7-1.7-6.3-3.4-.7-.6-1.2-1.3-1.4-2.1-.2-.9-.7-1.5-1.7-1.9,0-1.1-.3-2.4-.5-3.7-.3-1.4-.5-2.8-.8-4.3-.3-1.5-.5-3.1-.6-4.5,0-1.5,0-2.8.3-4,.3-1.3.8-2.4,1.5-3.5.9-1,1.2-2.1.9-3.4.4,0,.7-.3.8-.6,0-.4.4-.6,1-.5.5-1.5,1.1-3,1.7-4.4.6-1.4,1.2-2.7,1.8-4,.7-1.3,1.3-2.6,1.9-3.9.7-1.4,1.3-2.9,1.9-4.5-1.2-1.1-2.1-2.3-2.7-3.6-.5-1.4-.9-2.7-1.2-4-.3-1.4-.5-2.7-.6-4.1-.2-1.5-.5-2.9-.9-4.4.9-1.3,1.9-2.3,3.1-3.1,1.3-.9,2.7-1.5,4.1-2.1,1.5-.5,3-.9,4.8-1.3,1.7-.3,3.5-.7,5.4-1.2,3.4-1.1,6.5-2,9.2-2.6,2.7-.6,5.4-1.1,8-1.4,2.7-.4,5.4-.8,8.2-1.2,2.8-.3,6.1-.9,9.7-1.5.8.8,1.5,1.2,2.2,1.2.3-.8.7-1,1.2-.6.5.3.7,0,.6-.8.9,1.5,1.9,2.7,3.2,3.7,1.4.9,2.9,1.8,4.5,2.4Z"/>
  <path class="cls-1" d="M452.1,228.3c.8-1.8,1.6-4.4,2.6-7.9,1.6,1.5,3,2.7,4.1,3.7,1.2,1,2.5,2,3.9,3,1.5.9,3.1,1.8,5,2.7,2,.9,4.5,1.9,7.6,3.1,6.2,2.4,11.3,4,15.3,4.9,4,.9,7.4.9,10.1-.1.8,0,1.4-.3,1.8-.8.4-.3.8-.8,1.2-1.3l1-1.5c.3-.5.8-.9,1.3-1.3-.3,0-.7,0-1,0-.3,0-.4-.1-.5-.4.5-.6.8-1.4.9-2.3,0-1,0-2.1-.1-3.1-.2-1.1-.6-2.2-1.2-3.2-.5-1.1-1.2-2.1-1.9-2.8-2-.2-3.5-.3-4.6-.4l-3.1-.5c-1-.3-2.2-.5-3.5-.8-1.2-.3-2.9-.8-5.2-1.3-2.2-.5-4-.9-5.3-1.3-1.2-.4-2.4-.9-3.5-1.4-1-.5-2.2-1.2-3.4-1.9-1.2-.8-2.8-1.8-4.9-3.1,0-.4,0-.6-.4-.6s-.4-.2-.4-.5c2.8-1.2,6-2.3,9.5-3.4,3.5-1,6.8-2.3,9.9-3.7,3.1-1.5,5.7-3.5,7.9-5.8,2.2-2.3,3.5-5.4,3.7-9.2,0-.6,0-1.1,0-1.4,0-.3-.2-.7-.4-1,0-.3-.1-.6-.1-.9s0-.7.3-1.2c-.7-1.3-1.3-2.6-1.8-4-.5-1.5-1-2.9-1.5-4.3-.5-1.5-1.1-2.8-1.8-4-.6-1.3-1.4-2.4-2.4-3.4v-1.5c-.7-.4-1.3-.8-1.8-1.2-.4-.4-1-.8-1.7-1.2-1.4-2.1-3.1-3.9-5.3-5.2-2.1-1.4-3.9-2.7-5.7-4-3.4.3-6.1,1.4-8.4,3.2-2.1,1.8-4.1,3.9-5.9,6.2-1.8,2.3-3.6,4.7-5.3,7.2-1.7,2.4-3.7,4.5-5.9,6.2-.3-.6-1-1.1-2.2-1.4-1.1-.4-2.1-.6-3.1-.4-.9,1.9-1.5,4-2.1,6.2-.5,2.2-1,4.5-1.5,6.8-.4,2.3-.9,4.7-1.5,7.1-.5,2.3-1.2,4.6-2.1,6.8,0,.4.1,1,.1,1.7s0,1.2-.1,1.9c0,.6-.2,1.1-.4,1.5-.2.3-.4.4-.8.1.5,1.3.6,2.5.4,3.7-.3,1.2-.6,2.4-1,3.6-.3,1.2-.6,2.5-.9,3.9-.3,1.4-.5,2.8-.8,4.4.3.6.6,1.2.9,1.8.3.6.6.9,1,.9-.2.6-.2,1.1-.1,1.5,0,.3.2.7.3,1.2.2.3.3.8.4,1.3,0,.4,0,1-.1,1.7.9-.2,1.5,0,1.7.6.3.6.5,1.2.6,1.9.8,0,1.3,0,1.7.3.4.3.8.5,1,.6.3.3.6.5.9.6.3.2.9.2,1.7,0,.5-.3,1-.7,1.4-1.2.4-.4,1.2-.6,2.3-.4,1.5-1.9,2.5-3.7,3.2-5.4ZM469.9,180c1.2-1.1,2.3-2.4,3.2-3.7,1.6.5,3.2,1.6,4.6,3.2,1.5,1.6,2.5,3.8,2.8,6.4-2.9,1.2-6,2.5-9.3,3.9-3.3,1.3-6.4,2.1-9.4,2.4.3-1.9.9-3.5,1.8-4.9.9-1.5,1.8-2.7,2.8-3.9,1.1-1.2,2.2-2.4,3.4-3.5Z"/>
  <path class="cls-1" d="M393.6,335.5c0-.6-.4-1-.9-1.3.4-.4.6-.9.5-1.5,0-.7-.3-1.4-.6-2.2-.3-.9-.6-1.7-1-2.6-.4-.9-.8-1.8-1-2.7-.3-.2-.5-.3-.8-.4-.3-.2-.5-.3-.6-.5-.7-1.3-1.5-2.4-2.6-3.4-1-.9-2.1-1.8-3.4-2.7l-3.4-2.6c-1.1-.9-2.1-1.8-3-3,1.3-1.6,2.7-3.2,4.3-4.6,1.6-1.5,3.1-3,4.4-4.6,1.4-1.6,2.5-3.4,3.4-5.3.9-2,1.4-4.3,1.3-7-.2-.3-.4-.4-.8-.5-.3,0-.5-.3-.4-.8,0-1.1-.3-2.1-.9-3-.5-.9-1.2-1.6-2.1-2.3-.8-.8-1.6-1.5-2.6-2.2-.9-.7-1.6-1.4-2.2-2.2-.6,0-1.2-.2-1.8-.6-.5-.4-1.1-.9-1.7-1.4-.6-.5-1.3-1-2.1-1.4-.7-.4-1.5-.3-2.6.5-.9-.7-1.8-1.1-2.7-1.2-.8-.2-1.4-.5-1.8-1-.5.3-1.2.4-1.9.5h-2.2c-.8,0-1.5,0-2.3.1-.7,0-1.3.1-1.8.4-3.9-.3-7.5,0-10.8.8-3.4.8-6.7,1.5-10.1,2.1-2.1.5-4.2,1.1-6.4,1.7-2.2.5-4.3,1.2-6.3,2.2-2,.8-3.7,1.9-5.2,3.3-.3-1.2-.6-2.6-.7-4.2-.9-1-2-2.1-3.1-3.1-1-1-2.2-2-3.6-2.8-1.9.9-3.1,2.1-3.6,3.7-.3.7-.3,1.3,0,1.8l.3,1.4c0,1.5-.7,2.6-2.2,3.1-.2,2.4-.5,5-1,7.7-.4,2.7-1.1,5.4-2.1,8.1-.9,2.7-2,5.4-3.4,8-1.3,2.5-2.8,4.7-4.6,6.7-1.8,2-3.5,3.7-5.2,5.3-1.6,1.5-3.4,2.7-5.2,3.9-1.8,1.1-3.8,2.1-5.9,3-2.1.8-4.4,1.5-7,2.2l-2.2.3-.8-1.7c-.5-1.4-.9-3.1-1.2-5-.2-2.1-.2-4.2-.1-6.3.2-2.2.5-4.4.9-6.6.5-2.1,1.2-4,2.1-5.7,0-1.5-.4-3-1-4.5-.5-1.6-1.1-3.2-1.8-4.6-.3-.9-.7-1.6-1-2.3-.3-.8-.5-1.5-.6-2.2-1.3-.5-2.3-1.2-3-2.2-.6-.9-1.1-1.8-1.5-2.6-.4-.9-.9-1.6-1.3-2.1-.4-.4-1.2-.6-2.4-.5-.4.6-.9,1.3-1.5,2.1-.6.7-1.5,1.2-2.7,1.4-.5,1.6-.9,3.4-1.2,5.3-.2,1.1-.4,2.3-.6,3.6-.3,1.2-.5,2.7-.8,4.6v1.4c-1.3,3.9-2,8.3-2.1,13.3,0,4.9.1,10.3.4,16.2v2.1c.3.3.5.5.8.8.3.2.5.4.6.6l2.8,3.1-2.2.6c.5.9,1,1.7,1.4,2.6.4.8.9,1.6,1.3,2.6.7,1.5,1.4,3,2.1,4.4.8,1.3,1.9,2.3,3.4,3,.4,0,.9.1,1.4.4.5.3.9.7,1.2,1.4,2.4.3,4.4.4,6.1.4.9,0,1.9.2,3,.3,1.1,0,2.4,0,3.9.3,3.6-1.5,6.8-3,9.7-4.3,2.9-1.3,5.5-2.7,7.7-4.1,2.3-1.5,4.4-3.3,6.2-5.2,1.8-2,3.5-4.4,5.2-7.2l1.3-1.5,1.8-.5.5-3.2,2.6.9c.2-.2.4-.5.6-1,.3-.5.5-.9.6-1.2.3-.6.6-1.2.9-1.7.3-.6.7-1.1,1.2-1.5.8-1.7,1.8-3.7,3.1-6.1,1.3-2.3,2.6-5,4-8,.3-2.1.6-4,.9-5.9.2-1.3.5-2.6.9-4,1.6,1.4,3.5,2.5,5.7,3.4.8-.3,1.6-.3,2.6-.3,1,0,1.9-.3,2.6-1,.2-1.2.5-2.1,1-2.8.5-.8,1.4-1.2,2.6-1.3.3,1.5.4,2.7.1,3.9-.3,1-.6,2.1-1,3.1-.3.9-.7,1.9-1,3-.3.9-.5,2.1-.4,3.4-.8,2.1-1.3,3.8-1.7,5.2-.3,1.4-.5,2.7-.8,3.9-.2,1.2-.5,2.4-.9,3.7-.4,1.2-1,3.1-1.8,5.7-.7.5-1.2,1.2-1.4,1.9-.3.8-.5,1.5-.6,2.3-.2.8-.4,1.5-.6,2.3-.3.7-.7,1.3-1.3,1.8l.5,1.3c.2.4.3.9.4,1.5-.9.2-1.5.8-1.5,1.9,0,1.1-.2,2.1-.4,3.1.3,1.1.8,2.1,1.4,3.1.7.9.9,1.6.5,2.2.7.2,1.2.6,1.5,1.4.3.7.4,1.2.3,1.5.7.2,1.2.4,1.5.6.4.3.8.5,1,.8s.6.7.9,1c.3.3.8.6,1.3.9.4-.4.9-.6,1.3-.5.5,0,1.2.2,2.2.4.7-.3,1.2-.7,1.7-1.4.5-.7,1-1.4,1.4-2.1.8.5,1.7,1.1,2.7,1.7,1.1.7,2.1,1.2,3.1,1.5,1,.4,1.9.6,2.6.5.7,0,1.1-.4,1.2-1.3.3.2.5.4.5.6,0,.3.3.6.6.8,1.6-.3,3.4-.7,5.3-1.2,2-.3,3.3-1,4-1.9,4.5-.7,8.7-1.9,12.8-3.7,4.1-1.8,8.1-3.9,12-6.2,1-.9,1.7-1.4,1.9-1.7.3-.3.6-.6.9-.9.3-.4.7-1,1.3-1.8.6-.8,1.7-2.1,3.2-4.1,0-.3,0-.8,0-1.4ZM356.9,292.3c4.4-.9,8.8-1.3,13.1-1.2-2.1,2.6-4.5,4.9-7.1,7.1-2.6,2.1-5.5,3.8-8.9,5.2-.9-1.6-2.1-2.9-3.6-3.9-1.5-.9-2.9-2-4.4-3.2,2.9-1.7,6.5-3.1,10.8-4ZM373.1,330.2c-.7.5-1.2,1.2-1.4,2.1-2.1.8-4.2,1.6-6.2,2.6-1.9.9-3.9,1.7-5.9,2.6-2,.9-4,1.7-6.2,2.4-2.1.7-4.5,1.2-7.1,1.5.9-2.7,1.9-5.6,3-8.5,1-2.9,2-5.6,3-8.1,1.9-.3,3.7-.7,5.5-1.3,1.9-.6,3.8-1,5.8-1.3,2.1-.3,4.2-.3,6.4,0,2.3.3,4.9,1.1,7.6,2.6,0,1-.1,1.8-.6,2.4-.5.5-1.1,1-1.8,1.5-.7.4-1.4.9-2.1,1.4Z"/>
  <path class="cls-2" d="M205.8,356.1c2.8-.8,5.5-1.5,7.9-2.3l3-.8c1.1,0,2.2,0,3.2-.1,1.1,0,2.2-.2,3.2-.4l3.1-.3c1,0,2-.1,3-.1,2.5,0,4.9.4,7.2,1.2,1.7-.4,3.2-.6,4.4-.6h.8c.3,0,.9,0,1.5-.1.4-.4.9-.8,1.3-1.2.5-.3,1.4-.6,2.7-.9l-.3-1.4c.3-.3.5-.9.5-1.5,0-.3-.2-.8-.8-1.5l-.9-5.5c-.9-.7-1.8-1.2-2.7-1.5-.9-.4-1.8-.8-2.7-1.2-1-.3-2-.7-3-1.2-.9-.4-1.9-1.1-3-2.1-.4,0-.9-.1-1.5-.1h-1c-.2,0-.6-.3-1.4-.8-1,.2-2.1.3-3.4.3h-3.6c-3,0-6.1.3-9.2.5-3,.3-5.8,1.1-8.4,2.4-1-.3-1.9-.4-2.7-.4h-1.2c-.3,0-.7,0-1.2.3.2-3.2.6-6,1.4-8.5.9-2.5,1.8-5,2.8-7.5.6-1.4,1.2-2.7,1.7-4.1.6-1.4,1-3.2,1.3-5.4.4-.3.7-.7.9-1.2.3-.5.5-1,.6-1.4.2-.4.3-.8.4-1.2.2-.3.4-.7.8-1.2.3-1.9.8-3.5,1.3-4.8.5-1.3,1.1-2.6,1.7-3.9.5-1.2,1-2.4,1.4-3.6.5-1.2,1-2.7,1.4-4.4.3,0,.6-.4,1.2-1.2.3-1.9,0-3.4-.6-4.5-.7-1.2-1.5-2.4-2.4-3.5l-.5-.5c-.2-.3-.6-.6-1.3-1-1.4,0-3.1-.3-5.2-1-2.1-.8-3.9-1.5-5.4-2.3-.3,0-.8.2-1.3.4-.3.2-.9.5-1.5.9-1,4.4-2.2,8.5-3.5,12.2-1.3,3.8-2.7,7.6-4.1,11.5-.9,2.2-1.7,4.5-2.6,6.8-.8,2.2-1.8,5-3,8.2-.4.8-.8,1.6-1.2,2.6-.3.9-.3,1.8,0,2.6-.7.9-1.2,2.1-1.7,3.4-.3,1.3-.7,2.6-1,4,0,.4-.2.8-.3,1.2,0,.3,0,.7-.3,1-.4,1.5-.7,3.2-.9,4.9,0,1.7,0,3.4.1,5.2.3,1.6.7,3.3,1.3,4.9.6,1.5,1.4,2.9,2.4,4.1,0,.7.2,1.2.4,1.7l.8,1c.3.3.7,1,1.2,1.9,2.5,2.1,5.9,3.2,10.2,3.2s5.7-.4,8.5-1.2Z"/>
  <path class="cls-2" d="M160.3,355.4c2.1.2,3.8.2,5.2.1,1.5-1.1,2.9-2.2,4.4-3.2,1.5-1.1,2.8-2.3,4-3.6.3-1.5.2-2.7-.3-3.6-.4-1-1-1.9-1.7-2.7-.7-.9-1.5-1.6-2.3-2.3-.8-.8-1.5-1.6-2.1-2.4-6.4,0-12.9-.3-19.3-.8-6.4-.4-12.4-1.5-18-3.2-.5-.9-1-1.9-1.4-2.8-.4-1-.7-2.2-.9-3.5.4-.7.9-1.3,1.3-1.9.5-.7.7-1.6.6-2.8,1.4-1.3,2.7-2.6,3.9-3.9,1.3-1.4,2.6-2.7,4-3.9,1.5-1.3,3-2.4,4.5-3.4,1.6-1,3.5-1.8,5.5-2.4,2.3-2.6,5.3-4.5,8.9-5.8,3.7-1.4,7.6-2.6,11.7-3.7,1.8-.5,3.5-1.5,5-3.1,1.5-1.5,2.6-3.2,3.2-5,.6-1.8.6-3.5-.1-5.2-.7-1.7-2.3-3-4.9-3.7,0-.5,0-.9.3-1,.2-.3,0-.6-.3-1-1,0-1.8-.3-2.3-.6-.4-.4-1-.6-1.7-.5,0-.2.2-.5.4-.9.2-.4,0-.6-.4-.6-.2.4-.4.6-.6.6-.2,0-.4-.3-.6-.5-.3-.3-.6-.5-.9-.8-.3-.3-.6-.3-1-.3-.7.3-1.4.5-2.2.8-.8.2-1.4,0-1.8-.8-.5.9-1.2,1.5-2.2,2.1-.9.5-1.8,1-2.8,1.5-.9.4-1.9.9-2.8,1.4-.9.4-1.8,1-2.4,1.8-1.8.4-3.4,1-4.8,1.8-1.4.8-2.7,1.6-4,2.6-1.3.9-2.6,1.7-4,2.6-1.3.8-2.8,1.4-4.6,1.8-.5.7-1.1,1.3-1.8,1.8-.6.4-1.2.9-1.9,1.4-.6.4-1.2.9-1.8,1.5-.5.5-1.3,1-2.4,1.5-2.5,2.7-4.9,5.5-7.3,8.4-2.3,2.7-4.1,6.1-5.4,9.9,0,2.6,0,5.3.3,8.1.3,2.7.8,5.5,1.5,8.1.8,2.7,1.8,5.2,3.1,7.6,1.3,2.3,3,4.3,5,5.9,1.5.3,2.6.9,3.5,1.8.9.8,1.7,1.6,2.6,2.6,4,1.4,8.3,2.5,13,3.5,4.7.9,9.4,1.5,13.9,1.7,1.7-.8,3.6-1.1,5.5-.9Z"/>
  <path class="cls-2" d="M422.9,283c-1.5.3-2.5.8-3.1,1.3-.7.6-1.1,1.2-1.2,2.1-.2.7-.3,1.5,0,2.4.2.9.3,1.8.4,2.7,2.6,1.5,6.2,2.4,10.6,2.7,4.4.2,9.1.3,13.9.2,4.8-.2,9.5-.5,13.9-.9,4.5-.4,8-.5,10.7-.4,5.4.1,9.7.4,12.7.7,2.9.3,5,.6,6.1,1,1.9-.3,3.4-.7,4.4-1.4,1.1-.7,1.9-1.5,2.5-2.3.6-1,1.1-2,1.5-3.2.4-1.1.9-2.3,1.5-3.6-.5-.8-.7-1.9-.6-3.4,0-1.5.6-2.7,1.5-3.6-.8,0-1.5-.5-1.9-1.5-.5-1.1-.6-1.9-.2-2.4-1.6-.3-3.3-.4-5.2-.3-1.9,0-3.8,0-5.6,0-1.8,0-3.5,0-5.1,0-1.7-.2-3.2-.5-4.5-1-5,.3-10.1.6-15.5.9-5.4.3-10.5.5-15.2.7-1.7.6-3.6,1.1-5.9,1.4-2.3.2-4.5.5-6.7,1-2.2.4-4.1,1.1-5.8,2.2-1.7,1.1-2.8,2.7-3.4,4.8Z"/>
  <path class="cls-2" d="M83.9,284.3c-.6-.6-1.6-1-3.1-1.3-.5-2.2-1.6-3.8-3.4-4.8-1.7-1.1-3.7-1.8-5.8-2.2-2.2-.5-4.4-.8-6.7-1-2.3-.3-4.3-.8-5.9-1.4-4.7-.2-9.8-.4-15.2-.7-5.3-.2-10.5-.5-15.5-.9-1.2.5-2.7.8-4.5,1-1.6,0-3.3,0-5.1,0-1.8,0-3.7,0-5.6,0-1.8,0-3.5,0-5.2.3.4.5.3,1.3-.2,2.4-.5,1-1.1,1.5-1.9,1.5.9.9,1.4,2.1,1.5,3.6,0,1.5-.1,2.7-.6,3.4.6,1.3,1.1,2.5,1.5,3.6.4,1.1.9,2.2,1.5,3.2.6.9,1.5,1.6,2.5,2.3,1,.7,2.5,1.2,4.4,1.4,1.1-.4,3.2-.7,6.1-1,3-.3,7.3-.6,12.7-.7,2.6,0,6.2,0,10.7.4,4.5.4,9.1.7,13.9.9,4.8.1,9.4,0,13.9-.2,4.4-.3,8-1.2,10.6-2.7,0-.9.2-1.8.4-2.7.2-.9.1-1.7,0-2.4-.1-.8-.5-1.5-1.2-2.1Z"/>
</svg>