<?xml version="1.0" encoding="utf-8"?>
<!-- Generator: Adobe Illustrator 24.0.1, SVG Export Plug-In . SVG Version: 6.00 Build 0)  -->
<svg version="1.1" id="Camada_1" xmlns="http://www.w3.org/2000/svg" xmlns:xlink="http://www.w3.org/1999/xlink" x="0px" y="0px"
	 viewBox="0 0 512 512" style="enable-background:new 0 0 512 512;" xml:space="preserve">
<style type="text/css">
	.st0{fill:#FFFFFF;filter:url(#Adobe_OpacityMaskFilter);}
	.st1{mask:url(#mask0_3212_1786_2_);}
	.st2{fill:#DB2777;}
</style>
<defs>
	<filter id="Adobe_OpacityMaskFilter" filterUnits="userSpaceOnUse" x="4.4" y="1.1" width="502.3" height="510">
		<feColorMatrix  type="matrix" values="1 0 0 0 0  0 1 0 0 0  0 0 1 0 0  0 0 0 1 0"/>
	</filter>
</defs>
<mask maskUnits="userSpaceOnUse" x="4.4" y="1.1" width="502.3" height="510" id="mask0_3212_1786_2_">
	<path class="st0" d="M506.7,1H4.3v510h502.3V1z"/>
</mask>
<g class="st1">
	<path class="st2" d="M281.1,88.4L300.5,69c38-38,100-39,138.3-1.2c14.5,14.4,24.1,32.9,27.6,53c3.4,20.1,0.4,40.8-8.5,59.2
		c-4.3,8.8-5.7,18.6-4.1,28.3c1.6,9.6,6.2,18.5,13.1,25.4c12.7-12.7,22.7-27.8,29.6-44.4c6.8-16.6,10.4-34.4,10.3-52.3
		c0-18-3.6-35.7-10.5-52.3c-6.9-16.6-17-31.6-29.7-44.3C413-12.8,326.1-11.7,272.7,41.6L88.1,226.3l-15.2-15.2
		C34.2,172.4,34,109.2,73.3,71.2c14.6-14,33.1-23.2,53.1-26.2s40.4,0.2,58.5,9.3c8.2,4.2,17.6,5.7,26.8,4.3
		c9.2-1.4,17.6-5.7,24.2-12.2l0.5-0.5c0.1-0.1,0.3-0.3,0.3-0.5c0.1-0.2,0.1-0.4,0.1-0.6c0-0.2,0-0.4-0.1-0.6
		c-0.1-0.2-0.2-0.4-0.3-0.5C211,18.9,177,5,141.5,4.9C106,4.8,71.8,18.5,46.2,43.1C-8.8,96.3-8.6,184.7,45.5,238.9l184.6,184.6
		l-19.6,19.6c-38,38-100,39-138.3,1.2c-14.5-14.4-24.1-32.9-27.6-53c-3.4-20.1-0.4-40.8,8.5-59.2c4.3-8.8,5.7-18.6,4.1-28.3
		c-1.6-9.6-6.2-18.5-13.1-25.4c-12.7,12.7-22.7,27.8-29.6,44.4c-6.8,16.6-10.4,34.4-10.3,52.3c0,18,3.6,35.7,10.5,52.3
		c6.9,16.6,17,31.6,29.7,44.3c53.5,53.2,140.4,52.2,193.7-1.2l184.9-184.9l15.2,15.2c38,38,39,100,1.2,138.2
		c-14.4,14.5-32.9,24.1-53,27.6c-20.1,3.4-40.8,0.4-59.2-8.5c-8.8-4.3-18.7-5.7-28.3-4.1c-9.6,1.6-18.5,6.2-25.4,13.1
		c12.7,12.7,27.8,22.7,44.4,29.6c16.6,6.8,34.4,10.4,52.3,10.3c18,0,35.7-3.6,52.3-10.5c16.6-6.9,31.6-17,44.3-29.7
		c53.2-53.5,52.1-140.4-1.2-193.7L281.1,88.4z M257.7,395.9l-142-142L253.5,116l142,142L257.7,395.9z"/>
</g>
</svg>
